<svg width="18" height="15" viewBox="0 0 18 15" fill="none" xmlns="http://www.w3.org/2000/svg">
<path d="M14.675 0.62793H3.32497C3.19031 0.627995 3.05882 0.668821 2.9478 0.745036C2.83678 0.821251 2.75143 0.929286 2.70297 1.05493L1.15297 5.05493C1.11381 5.156 1.09986 5.2651 1.11235 5.37277C1.12484 5.48044 1.16338 5.58345 1.22464 5.67288C1.2859 5.7623 1.36803 5.83545 1.46392 5.88599C1.55981 5.93653 1.66658 5.96294 1.77497 5.96293H16.225C16.3334 5.96294 16.4401 5.93653 16.536 5.88599C16.6319 5.83545 16.714 5.7623 16.7753 5.67288C16.8366 5.58345 16.8751 5.48044 16.8876 5.37277C16.9001 5.2651 16.8861 5.156 16.847 5.05493L15.296 1.05493C15.2477 0.929365 15.1625 0.821363 15.0517 0.745143C14.9408 0.668923 14.8095 0.628059 14.675 0.62793Z" stroke="#7B7B7B" stroke-linecap="round" stroke-linejoin="round"/>
<path d="M15.7008 13.9608V5.96777H2.29883V13.2938C2.29909 13.4708 2.36959 13.6404 2.49483 13.7655C2.62008 13.8905 2.78984 13.9608 2.96683 13.9608H9.58683C9.76382 13.9608 9.93358 13.8905 10.0588 13.7655C10.1841 13.6404 10.2546 13.4708 10.2548 13.2938V6.07477" stroke="#7B7B7B" stroke-linecap="round" stroke-linejoin="round"/>
<path d="M2.29883 10.2749H10.2548" stroke="#7B7B7B" stroke-linecap="round" stroke-linejoin="round"/>
</svg>
