<svg width="17" height="15" viewBox="0 0 17 15" fill="none" xmlns="http://www.w3.org/2000/svg">
<path d="M7.13214 14.5931C6.22023 13.8184 5.13373 13.2768 3.96614 13.0151C3.07302 12.8145 2.15136 12.7742 1.24414 12.8961V3.0421C2.29267 2.87637 3.36467 2.94018 4.38614 3.2291C5.40508 3.51487 6.34464 4.03118 7.13214 4.7381V14.5931Z" stroke="#7B7B7B" stroke-width="0.8" stroke-linecap="round" stroke-linejoin="round"/>
<path d="M9.86916 14.5931C10.7811 13.8184 11.8676 13.2768 13.0352 13.0151C13.928 12.815 14.8493 12.775 15.7562 12.8971V3.0421C14.7076 2.87637 13.6356 2.94018 12.6142 3.2291C11.5951 3.51516 10.6556 4.03182 9.86816 4.7391L9.86916 14.5931Z" stroke="#7B7B7B" stroke-width="0.8" stroke-linecap="round" stroke-linejoin="round"/>
<path d="M9.86932 4.73926H7.13232V14.5933H9.86932V4.73926Z" stroke="#7B7B7B" stroke-width="0.8" stroke-linecap="round" stroke-linejoin="round"/>
<path d="M1.53223 1.61912C3.67147 1.49502 5.77754 2.19132 7.42123 3.56612H8.50023" stroke="#7B7B7B" stroke-width="0.8" stroke-linecap="round" stroke-linejoin="round"/>
<path d="M2.12305 0.458096C2.12305 0.458096 6.15905 0.120096 8.50005 2.9201C10.837 0.120096 14.873 0.458096 14.873 0.458096" stroke="#7B7B7B" stroke-width="0.8" stroke-linecap="round" stroke-linejoin="round"/>
<path d="M15.469 1.61912C13.3297 1.49502 11.2237 2.19132 9.57998 3.56612H8.50098" stroke="#7B7B7B" stroke-width="0.8" stroke-linecap="round" stroke-linejoin="round"/>
</svg>
