<svg width="18" height="16" viewBox="0 0 18 16" fill="none" xmlns="http://www.w3.org/2000/svg">
<path d="M14.2369 8.29424C14.2366 9.5978 13.8869 10.8775 13.2242 12C12.5615 13.1226 11.6101 14.047 10.4689 14.6771C9.32769 15.3071 8.03849 15.6198 6.73546 15.5825C5.43243 15.5453 4.16319 15.1595 3.05987 14.4652C-0.181128 12.4192 2.05987 10.7702 2.80687 10.1122C3.27287 9.76914 3.59698 9.26715 3.71787 8.70124C3.7302 8.44047 3.69058 8.17986 3.60131 7.93454C3.51204 7.68922 3.37491 7.46409 3.19787 7.27224C2.86687 6.87224 2.45087 6.54824 2.08687 6.17224C1.6999 5.82023 1.43451 5.35458 1.32887 4.84224C1.14387 3.49224 2.32387 2.53124 3.36287 1.94224C4.35304 1.38514 5.45957 1.06685 6.59441 1.01269C7.72925 0.958537 8.86107 1.17001 9.89979 1.63028C10.9385 2.09055 11.8555 2.78692 12.5777 3.66396C13.2999 4.541 13.8074 5.57451 14.0599 6.68224" stroke="#7B7B7B" stroke-width="0.8" stroke-linecap="round" stroke-linejoin="round"/>
<path d="M5.67072 5.00213C5.67052 5.24235 5.59912 5.47712 5.46554 5.67677C5.33196 5.87643 5.14219 6.032 4.92022 6.12384C4.69825 6.21567 4.45404 6.23965 4.21844 6.19274C3.98285 6.14582 3.76645 6.03013 3.59659 5.86027C3.42673 5.69041 3.31103 5.47401 3.26412 5.23841C3.21721 5.00282 3.24118 4.75861 3.33302 4.53663C3.42485 4.31466 3.58043 4.1249 3.78008 3.99131C3.97973 3.85773 4.2145 3.78633 4.45472 3.78613C4.61441 3.78613 4.77253 3.81759 4.92007 3.8787C5.0676 3.93981 5.20165 4.02938 5.31456 4.14229C5.42748 4.25521 5.51705 4.38926 5.57816 4.53679C5.63927 4.68432 5.67072 4.84245 5.67072 5.00213Z" stroke="#7B7B7B" stroke-width="0.8" stroke-linecap="round" stroke-linejoin="round"/>
<path d="M5.67072 12.1974C5.67052 12.4377 5.59912 12.6724 5.46554 12.8721C5.33196 13.0717 5.14219 13.2273 4.92022 13.3191C4.69825 13.411 4.45404 13.435 4.21844 13.3881C3.98285 13.3411 3.76645 13.2254 3.59659 13.0556C3.42673 12.8857 3.31103 12.6693 3.26412 12.4337C3.21721 12.1981 3.24118 11.9539 3.33302 11.7319C3.42485 11.51 3.58043 11.3202 3.78008 11.1866C3.97973 11.053 4.2145 10.9816 4.45472 10.9814C4.61441 10.9814 4.77253 11.0129 4.92007 11.074C5.0676 11.1351 5.20165 11.2247 5.31456 11.3376C5.42748 11.4505 5.51705 11.5846 5.57816 11.7321C5.63927 11.8796 5.67072 12.0378 5.67072 12.1974Z" stroke="#7B7B7B" stroke-width="0.8" stroke-linecap="round" stroke-linejoin="round"/>
<path d="M9.32307 4.01141C9.32287 4.25163 9.25147 4.4864 9.11789 4.68605C8.9843 4.8857 8.79454 5.04128 8.57257 5.13311C8.35059 5.22495 8.10638 5.24893 7.87079 5.20201C7.63519 5.1551 7.41879 5.03941 7.24893 4.86954C7.07907 4.69968 6.96337 4.48328 6.91646 4.24769C6.86955 4.0121 6.89353 3.76788 6.98536 3.54591C7.0772 3.32394 7.23277 3.13417 7.43243 3.00059C7.63208 2.86701 7.86685 2.79561 8.10707 2.79541C8.26675 2.79541 8.42488 2.82686 8.57241 2.88797C8.71994 2.94908 8.85399 3.03865 8.96691 3.15157C9.07982 3.26448 9.16939 3.39854 9.2305 3.54607C9.29161 3.6936 9.32307 3.85172 9.32307 4.01141Z" stroke="#7B7B7B" stroke-width="0.8" stroke-linecap="round" stroke-linejoin="round"/>
<path d="M12.5369 6.21844C12.5367 6.45866 12.4653 6.69343 12.3318 6.89308C12.1982 7.09274 12.0084 7.24831 11.7864 7.34015C11.5645 7.43198 11.3202 7.45596 11.0847 7.40905C10.8491 7.36213 10.6327 7.24644 10.4628 7.07658C10.2929 6.90671 10.1772 6.69031 10.1303 6.45472C10.0834 6.21913 10.1074 5.97491 10.1992 5.75294C10.2911 5.53097 10.4466 5.3412 10.6463 5.20762C10.8459 5.07404 11.0807 5.00264 11.3209 5.00244C11.6434 5.00244 11.9527 5.13056 12.1808 5.3586C12.4088 5.58664 12.5369 5.89594 12.5369 6.21844Z" stroke="#7B7B7B" stroke-width="0.8" stroke-linecap="round" stroke-linejoin="round"/>
<path d="M9.83203 9.99822L16.374 4.86022C16.4193 4.82531 16.4758 4.80818 16.5328 4.81207C16.5899 4.81595 16.6435 4.84059 16.6836 4.88132C16.7238 4.92206 16.7476 4.97607 16.7506 5.03316C16.7536 5.09025 16.7356 5.14648 16.7 5.19122L11.405 11.5802L9.83203 9.99822Z" stroke="#7B7B7B" stroke-width="0.8" stroke-linecap="round" stroke-linejoin="round"/>
<path d="M9.83093 10.0054C9.83093 10.0054 8.38893 10.1204 8.10693 10.9854C7.82493 11.8504 8.22293 13.3854 6.60693 13.7134C6.60693 13.7134 10.8069 15.1534 11.4069 11.5874" stroke="#7B7B7B" stroke-width="0.8" stroke-linecap="round" stroke-linejoin="round"/>
</svg>
