<svg width="15" height="18" viewBox="0 0 15 18" fill="none" xmlns="http://www.w3.org/2000/svg">
<path d="M11.5258 9.32812C11.6698 9.9357 11.6744 10.568 11.5392 11.1776C11.4041 11.7872 11.1327 12.3583 10.7454 12.8481C10.3581 13.3379 9.86499 13.7336 9.30299 14.0057C8.74098 14.2778 8.12468 14.4191 7.50028 14.4191C6.87588 14.4191 6.25958 14.2778 5.69758 14.0057C5.13557 13.7336 4.64245 13.3379 4.25517 12.8481C3.86789 12.3583 3.59651 11.7872 3.46135 11.1776C3.3262 10.568 3.33079 9.9357 3.47478 9.32812" stroke="#7B7B7B" stroke-width="0.8" stroke-linecap="round" stroke-linejoin="round"/>
<path d="M5.03289 6.25315C4.78211 6.52872 4.46336 6.73362 4.10853 6.84734C3.75371 6.96106 3.37524 6.97962 3.01099 6.90116C2.64674 6.82271 2.30947 6.64999 2.03292 6.40028C1.75637 6.15057 1.55024 5.83262 1.43514 5.47824C1.32003 5.12386 1.3 4.74547 1.37703 4.38092C1.45407 4.01636 1.62547 3.67842 1.8741 3.4009C2.12273 3.12339 2.43987 2.91601 2.7938 2.79953C3.14773 2.68305 3.52604 2.66154 3.89089 2.73715" stroke="#7B7B7B" stroke-width="0.8" stroke-linecap="round" stroke-linejoin="round"/>
<path d="M11.1858 6.92006C11.6055 6.99043 12.0366 6.93338 12.4235 6.75627C12.8104 6.57916 13.1353 6.29013 13.3563 5.9265C13.5773 5.56287 13.6842 5.14135 13.6632 4.71636C13.6422 4.29137 13.4942 3.88243 13.2385 3.54235C12.9828 3.20228 12.6309 2.94668 12.2285 2.80857C11.826 2.67046 11.3914 2.65618 10.9807 2.76757C10.57 2.87896 10.2022 3.11091 9.92465 3.43346C9.64713 3.75602 9.47268 4.15436 9.42383 4.57706" stroke="#7B7B7B" stroke-width="0.8" stroke-linecap="round" stroke-linejoin="round"/>
<path d="M11.0838 2.764C10.5525 2.11914 9.85704 1.62954 9.07078 1.34679C8.28452 1.06404 7.43655 0.998615 6.61622 1.1574C5.79589 1.31618 5.03358 1.6933 4.40962 2.24901C3.78565 2.80472 3.32313 3.51845 3.0708 4.315" stroke="#7B7B7B" stroke-width="0.8" stroke-linecap="round" stroke-linejoin="round"/>
<path d="M3.46191 6.95215V9.32915C4.78019 8.9938 6.14146 8.85895 7.49991 8.92915" stroke="#7B7B7B" stroke-width="0.8" stroke-linecap="round" stroke-linejoin="round"/>
<path d="M11.538 6.95215V9.32915C10.2197 8.9938 8.85845 8.85895 7.5 8.92915" stroke="#7B7B7B" stroke-width="0.8" stroke-linecap="round" stroke-linejoin="round"/>
<path d="M4.51367 14.915C6.43059 15.6796 8.56776 15.6796 10.4847 14.915" stroke="#7B7B7B" stroke-width="0.8" stroke-linecap="round" stroke-linejoin="round"/>
<path d="M7.57807 15.5142L5.54507 17.4142C5.54507 17.4142 4.60007 15.9142 7.50007 15.5372" stroke="#7B7B7B" stroke-width="0.8" stroke-linecap="round" stroke-linejoin="round"/>
<path d="M7.58203 15.5142L9.61503 17.4142C9.61503 17.4142 10.521 15.9262 7.62203 15.5462" stroke="#7B7B7B" stroke-width="0.8" stroke-linecap="round" stroke-linejoin="round"/>
</svg>
