<svg width="18" height="16" viewBox="0 0 18 16" fill="none" xmlns="http://www.w3.org/2000/svg">
<path d="M15.298 15.4601L13.098 14.4681L3.09798 4.46809L2.79798 4.76809C2.67746 4.88909 2.53427 4.98514 2.3766 5.05078C2.21894 5.11641 2.04989 5.15034 1.87911 5.15062C1.70833 5.1509 1.53916 5.11752 1.38129 5.0524C1.22341 4.98728 1.07991 4.89169 0.958984 4.77109L2.78398 2.94609L4.60898 1.12109C4.72978 1.24182 4.8256 1.38516 4.89098 1.54293C4.95636 1.70071 4.99001 1.86981 4.99001 2.04059C4.99001 2.21137 4.95636 2.38048 4.89098 2.53825C4.8256 2.69602 4.72978 2.83937 4.60898 2.96009L4.30898 3.26009L14.309 13.2601L15.298 15.4601Z" stroke="#7B7B7B" stroke-width="0.8" stroke-linecap="round" stroke-linejoin="round"/>
<path d="M5.52776 4.48291L4.78076 5.22991" stroke="#7B7B7B" stroke-width="0.8" stroke-linecap="round" stroke-linejoin="round"/>
<path d="M6.33294 5.28711L5.58594 6.03411" stroke="#7B7B7B" stroke-width="0.8" stroke-linecap="round" stroke-linejoin="round"/>
<path d="M7.13714 6.09229L6.39014 6.83929" stroke="#7B7B7B" stroke-width="0.8" stroke-linecap="round" stroke-linejoin="round"/>
<path d="M7.94182 6.89697L7.19482 7.64397" stroke="#7B7B7B" stroke-width="0.8" stroke-linecap="round" stroke-linejoin="round"/>
<path d="M9.06912 10.438L4.94512 14.561L2.74512 15.552L3.73612 13.352L7.85912 9.229" stroke="#7B7B7B" stroke-width="0.8" stroke-linecap="round" stroke-linejoin="round"/>
<path d="M9.06885 8.02433L13.7388 3.35433L13.4388 3.05433C13.3181 2.93361 13.2222 2.79026 13.1569 2.63249C13.0915 2.47472 13.0578 2.30561 13.0578 2.13483C13.0578 1.96405 13.0915 1.79494 13.1569 1.63717C13.2222 1.4794 13.3181 1.33606 13.4388 1.21533L15.2618 3.03433L17.0818 4.86333C16.9611 4.98413 16.8178 5.07995 16.66 5.14533C16.5022 5.2107 16.3331 5.24435 16.1623 5.24435C15.9916 5.24435 15.8225 5.2107 15.6647 5.14533C15.5069 5.07995 15.3636 4.98413 15.2428 4.86333L14.9428 4.56333L10.2758 9.23433" stroke="#7B7B7B" stroke-width="0.8" stroke-linecap="round" stroke-linejoin="round"/>
<path d="M13.725 5.78216L12.978 5.03516" stroke="#7B7B7B" stroke-width="0.8" stroke-linecap="round" stroke-linejoin="round"/>
<path d="M12.9199 6.58733L12.1729 5.84033" stroke="#7B7B7B" stroke-width="0.8" stroke-linecap="round" stroke-linejoin="round"/>
<path d="M12.1152 7.39104L11.3682 6.64404" stroke="#7B7B7B" stroke-width="0.8" stroke-linecap="round" stroke-linejoin="round"/>
<path d="M11.311 8.19622L10.564 7.44922" stroke="#7B7B7B" stroke-width="0.8" stroke-linecap="round" stroke-linejoin="round"/>
</svg>
