<svg width="8" height="17" viewBox="0 0 8 17" fill="none" xmlns="http://www.w3.org/2000/svg">
<path d="M4.05303 0.853027H3.34603L3.18503 1.60103L1.69303 2.27503C1.52324 2.35196 1.38657 2.4871 1.30771 2.656C1.22884 2.82491 1.213 3.01646 1.26303 3.19603L1.89403 5.44403C2.0654 6.05523 2.10931 6.69514 2.02303 7.32403L1.60203 10.392C1.58596 10.5063 1.59306 10.6226 1.62291 10.734C1.65276 10.8454 1.70474 10.9497 1.77576 11.0406C1.84678 11.1315 1.93539 11.2071 2.03628 11.2631C2.13718 11.319 2.24831 11.354 2.36303 11.366C2.77103 11.405 3.32803 11.438 4.05403 11.438C4.78003 11.438 5.33703 11.405 5.74503 11.366C5.85973 11.354 5.97082 11.319 6.07167 11.2631C6.17252 11.2071 6.26106 11.1314 6.332 11.0405C6.40294 10.9496 6.45483 10.8453 6.48456 10.7339C6.51429 10.6225 6.52125 10.5062 6.50503 10.392L6.08503 7.31903C5.99842 6.69015 6.04233 6.05018 6.21403 5.43903L6.84303 3.19203C6.89286 3.01246 6.87691 2.821 6.79807 2.65214C6.71924 2.48328 6.58269 2.34813 6.41303 2.27103L4.92103 1.60103L4.76103 0.853027H4.05303Z" stroke="#7B7B7B" stroke-width="0.8" stroke-linecap="round" stroke-linejoin="round"/>
<path d="M4.05322 11.4438V15.9478" stroke="#7B7B7B" stroke-width="0.8" stroke-linecap="round" stroke-linejoin="round"/>
<path d="M2.18799 15.9482H5.91899" stroke="#7B7B7B" stroke-width="0.8" stroke-linecap="round" stroke-linejoin="round"/>
</svg>
