<svg width="19" height="16" viewBox="0 0 19 16" fill="none" xmlns="http://www.w3.org/2000/svg">
<path d="M4.69285 13.1489C4.91931 13.1489 5.14069 13.2161 5.32898 13.3419C5.51727 13.4677 5.66403 13.6465 5.75069 13.8558C5.83736 14.065 5.86003 14.2952 5.81585 14.5173C5.77167 14.7394 5.66262 14.9434 5.50249 15.1036C5.34236 15.2637 5.13834 15.3727 4.91623 15.4169C4.69412 15.4611 4.4639 15.4384 4.25468 15.3518C4.04546 15.2651 3.86663 15.1183 3.74082 14.9301C3.615 14.7418 3.54785 14.5204 3.54785 14.2939C3.54785 13.9903 3.66849 13.699 3.88321 13.4843C4.09794 13.2696 4.38918 13.1489 4.69285 13.1489Z" stroke="#7B7B7B" stroke-width="0.8" stroke-linecap="round" stroke-linejoin="round"/>
<path d="M9.71092 13.1489C9.93738 13.1489 10.1588 13.2161 10.347 13.3419C10.5353 13.4677 10.6821 13.6465 10.7688 13.8558C10.8554 14.065 10.8781 14.2952 10.8339 14.5173C10.7897 14.7394 10.6807 14.9434 10.5206 15.1036C10.3604 15.2637 10.1564 15.3727 9.9343 15.4169C9.71219 15.4611 9.48197 15.4384 9.27275 15.3518C9.06352 15.2651 8.8847 15.1183 8.75889 14.9301C8.63307 14.7418 8.56592 14.5204 8.56592 14.2939C8.56592 13.9903 8.68655 13.699 8.90128 13.4843C9.11601 13.2696 9.40725 13.1489 9.71092 13.1489Z" stroke="#7B7B7B" stroke-width="0.8" stroke-linecap="round" stroke-linejoin="round"/>
<path d="M9.71191 8.29492V12.9149" stroke="#7B7B7B" stroke-width="0.8" stroke-linecap="round" stroke-linejoin="round"/>
<path d="M7.12468 8.29492H3.74268" stroke="#7B7B7B" stroke-width="0.8" stroke-linecap="round" stroke-linejoin="round"/>
<path d="M4.69287 3.52686V5.46686L7.12387 6.19186V10.3979L4.69287 11.1229V13.0409" stroke="#7B7B7B" stroke-width="0.8" stroke-linecap="round" stroke-linejoin="round"/>
<path d="M4.69285 3.44186C4.91927 3.44186 5.1406 3.37473 5.32888 3.24896C5.51715 3.12319 5.66391 2.94442 5.7506 2.73526C5.83729 2.5261 5.86002 2.29593 5.81592 2.07385C5.77182 1.85176 5.66287 1.64774 5.50284 1.48757C5.34281 1.3274 5.13889 1.21827 4.91684 1.17398C4.6948 1.12969 4.46461 1.15222 4.25537 1.23873C4.04613 1.32524 3.86724 1.47184 3.74131 1.66C3.61537 1.84816 3.54805 2.06944 3.54785 2.29586C3.54772 2.4463 3.57724 2.5953 3.63472 2.73434C3.69221 2.87337 3.77652 2.99971 3.88286 3.10614C3.9892 3.21257 4.11547 3.297 4.25445 3.3546C4.39343 3.41221 4.5424 3.44186 4.69285 3.44186Z" stroke="#7B7B7B" stroke-width="0.8" stroke-linecap="round" stroke-linejoin="round"/>
<path d="M2.52684 9.44088C2.75347 9.44088 2.975 9.37362 3.16338 9.24763C3.35176 9.12164 3.49852 8.94258 3.58506 8.73312C3.67161 8.52367 3.69405 8.29324 3.64954 8.07103C3.60504 7.84881 3.49559 7.6448 3.33506 7.48483C3.17452 7.32486 2.97013 7.21612 2.74776 7.17239C2.52539 7.12867 2.29504 7.15191 2.08589 7.23919C1.87674 7.32647 1.69819 7.47385 1.57286 7.66267C1.44753 7.85148 1.38105 8.07325 1.38184 8.29988C1.3829 8.60286 1.504 8.89307 1.71862 9.10693C1.93323 9.3208 2.22386 9.44088 2.52684 9.44088Z" stroke="#7B7B7B" stroke-width="0.8" stroke-linecap="round" stroke-linejoin="round"/>
<path d="M12.2988 8.29492H15.6808" stroke="#7B7B7B" stroke-width="0.8" stroke-linecap="round" stroke-linejoin="round"/>
<path d="M16.893 9.44088C16.6665 9.44028 16.4452 9.37252 16.2572 9.24617C16.0693 9.11982 15.923 8.94055 15.8369 8.73104C15.7508 8.52154 15.7288 8.29121 15.7736 8.06919C15.8185 7.84717 15.9282 7.64344 16.0888 7.48377C16.2495 7.3241 16.4539 7.21566 16.6762 7.17218C16.8984 7.12869 17.1286 7.15211 17.3376 7.23948C17.5466 7.32684 17.725 7.47422 17.8502 7.66297C17.9754 7.85173 18.0418 8.07337 18.041 8.29987C18.0399 8.60337 17.9184 8.89404 17.7031 9.10799C17.4879 9.32194 17.1965 9.44167 16.893 9.44088Z" stroke="#7B7B7B" stroke-width="0.8" stroke-linecap="round" stroke-linejoin="round"/>
<path d="M14.7299 13.1489C14.5035 13.1491 14.2822 13.2164 14.0941 13.3424C13.9059 13.4683 13.7593 13.6472 13.6728 13.8564C13.5863 14.0657 13.5638 14.2959 13.6081 14.5179C13.6524 14.74 13.7615 14.9439 13.9217 15.1039C14.0818 15.2639 14.2858 15.3729 14.5079 15.417C14.73 15.4611 14.9602 15.4384 15.1693 15.3517C15.3785 15.265 15.5573 15.1182 15.683 14.9299C15.8088 14.7417 15.8759 14.5203 15.8759 14.2939C15.8759 14.1435 15.8463 13.9945 15.7887 13.8555C15.7311 13.7165 15.6467 13.5903 15.5402 13.4839C15.4338 13.3776 15.3075 13.2933 15.1684 13.2358C15.0294 13.1783 14.8804 13.1488 14.7299 13.1489Z" stroke="#7B7B7B" stroke-width="0.8" stroke-linecap="round" stroke-linejoin="round"/>
<path d="M14.7298 3.57373V5.46673L12.2988 6.19173V10.3977L14.7298 11.1227V13.0357" stroke="#7B7B7B" stroke-width="0.8" stroke-linecap="round" stroke-linejoin="round"/>
<path d="M14.7299 3.44186C14.5036 3.44166 14.2823 3.37436 14.0942 3.24847C13.906 3.12258 13.7594 2.94375 13.6729 2.73457C13.5864 2.52539 13.5638 2.29525 13.608 2.07323C13.6522 1.85122 13.7612 1.64729 13.9213 1.48722C14.0814 1.32715 14.2853 1.21812 14.5073 1.17391C14.7293 1.12969 14.9595 1.15228 15.1686 1.23882C15.3778 1.32536 15.5567 1.47196 15.6826 1.6601C15.8084 1.84825 15.8757 2.06948 15.8759 2.29586C15.8761 2.44639 15.8465 2.59547 15.789 2.73457C15.7314 2.87366 15.647 3.00005 15.5406 3.10649C15.4341 3.21294 15.3077 3.29734 15.1686 3.35489C15.0295 3.41243 14.8805 3.44199 14.7299 3.44186Z" stroke="#7B7B7B" stroke-width="0.8" stroke-linecap="round" stroke-linejoin="round"/>
<path d="M9.71092 3.44186C9.93734 3.44186 10.1587 3.37473 10.3469 3.24896C10.5352 3.12319 10.682 2.94442 10.7687 2.73526C10.8554 2.5261 10.8781 2.29593 10.834 2.07385C10.7899 1.85176 10.6809 1.64774 10.5209 1.48757C10.3609 1.3274 10.157 1.21827 9.93491 1.17398C9.71287 1.12969 9.48268 1.15222 9.27344 1.23873C9.0642 1.32524 8.88531 1.47184 8.75937 1.66C8.63344 1.84816 8.56612 2.06944 8.56592 2.29586C8.56579 2.4463 8.59531 2.5953 8.65279 2.73434C8.71027 2.87337 8.79459 2.99971 8.90093 3.10614C9.00726 3.21257 9.13353 3.297 9.27251 3.3546C9.4115 3.41221 9.56047 3.44186 9.71092 3.44186Z" stroke="#7B7B7B" stroke-width="0.8" stroke-linecap="round" stroke-linejoin="round"/>
<path d="M9.71191 8.2948V3.6748" stroke="#7B7B7B" stroke-width="0.8" stroke-linecap="round" stroke-linejoin="round"/>
</svg>
