<svg width="10" height="17" viewBox="0 0 10 17" fill="none" xmlns="http://www.w3.org/2000/svg">
<path d="M6.0487 7.15918H3.9507C2.78814 7.15918 1.8457 8.10162 1.8457 9.26418V13.6482C1.8457 14.8107 2.78814 15.7532 3.9507 15.7532H6.0487C7.21126 15.7532 8.1537 14.8107 8.1537 13.6482V9.26418C8.1537 8.10162 7.21126 7.15918 6.0487 7.15918Z" stroke="#7B7B7B" stroke-width="0.8" stroke-linecap="round" stroke-linejoin="round"/>
<path d="M7.7417 7.16295H2.2597C1.96212 7.16295 1.67674 7.04473 1.46632 6.83432C1.25591 6.6239 1.1377 6.33852 1.1377 6.04095C1.1377 5.74337 1.25591 5.45799 1.46632 5.24757C1.67674 5.03716 1.96212 4.91895 2.2597 4.91895H7.7417C8.03927 4.91895 8.32465 5.03716 8.53507 5.24757C8.74548 5.45799 8.8637 5.74337 8.8637 6.04095C8.8637 6.33852 8.74548 6.6239 8.53507 6.83432C8.32465 7.04473 8.03927 7.16295 7.7417 7.16295Z" stroke="#7B7B7B" stroke-width="0.8" stroke-linecap="round" stroke-linejoin="round"/>
<path d="M5.46774 2.64502H4.53174C4.23356 2.64489 3.93827 2.70351 3.66274 2.81753C3.38722 2.93155 3.13686 3.09873 2.92596 3.30953C2.71507 3.52034 2.54777 3.77062 2.43363 4.0461C2.31949 4.32157 2.26074 4.61683 2.26074 4.91502H7.73774C7.73774 4.31298 7.49858 3.73559 7.07287 3.30989C6.64717 2.88418 6.06978 2.64502 5.46774 2.64502Z" stroke="#7B7B7B" stroke-width="0.8" stroke-linecap="round" stroke-linejoin="round"/>
<path d="M4.9999 0.834961C4.70816 0.834961 4.42838 0.950853 4.22208 1.15714C4.01579 1.36343 3.8999 1.64322 3.8999 1.93496V2.64896H6.0899V1.92996C6.0886 1.64081 5.9735 1.36381 5.76951 1.15888C5.56552 0.953953 5.28904 0.837587 4.9999 0.834961Z" stroke="#7B7B7B" stroke-width="0.8" stroke-linecap="round" stroke-linejoin="round"/>
<path d="M1.8457 9.96387H3.9047" stroke="#7B7B7B" stroke-width="0.8" stroke-linecap="round" stroke-linejoin="round"/>
<path d="M1.8457 12.584H3.9047" stroke="#7B7B7B" stroke-width="0.8" stroke-linecap="round" stroke-linejoin="round"/>
</svg>
