<svg width="17" height="17" viewBox="0 0 17 17" fill="none" xmlns="http://www.w3.org/2000/svg">
<path d="M15.9611 8.29303C15.9611 9.76868 15.5235 11.2112 14.7037 12.4381C13.8838 13.6651 12.7186 14.6214 11.3553 15.1861C9.99195 15.7508 8.49179 15.8986 7.0445 15.6107C5.5972 15.3228 4.26778 14.6122 3.22434 13.5688C2.1809 12.5253 1.47031 11.1959 1.18243 9.7486C0.894543 8.30131 1.0423 6.80115 1.607 5.43783C2.17171 4.07451 3.128 2.90926 4.35496 2.08944C5.58191 1.26961 7.02442 0.832031 8.50007 0.832031C10.4788 0.832031 12.3766 1.6181 13.7758 3.01731C15.175 4.41652 15.9611 6.31425 15.9611 8.29303Z" stroke="#7B7B7B" stroke-width="0.8" stroke-linecap="round" stroke-linejoin="round"/>
<path d="M8.5 0.832031V15.754" stroke="#7B7B7B" stroke-width="0.8" stroke-linecap="round" stroke-linejoin="round"/>
<path d="M3.69824 2.58496C5.22833 4.23039 6.04731 6.41314 5.97724 8.65896C5.87397 10.6533 5.06639 12.5463 3.69824 14.001" stroke="#7B7B7B" stroke-width="0.8" stroke-linecap="round" stroke-linejoin="round"/>
<path d="M13.3032 2.58496C11.7728 4.23016 10.9537 6.41307 11.0242 8.65896C11.1273 10.6535 11.9353 12.5466 13.3042 14.001" stroke="#7B7B7B" stroke-width="0.8" stroke-linecap="round" stroke-linejoin="round"/>
<path d="M15.9611 8.29297H1.03906" stroke="#7B7B7B" stroke-width="0.8" stroke-linecap="round" stroke-linejoin="round"/>
</svg>
