<?xml version="1.0" encoding="UTF-8" standalone="no"?>
<svg
   xmlns:dc="http://purl.org/dc/elements/1.1/"
   xmlns:cc="http://creativecommons.org/ns#"
   xmlns:rdf="http://www.w3.org/1999/02/22-rdf-syntax-ns#"
   xmlns:svg="http://www.w3.org/2000/svg"
   xmlns="http://www.w3.org/2000/svg"
   xmlns:sodipodi="http://sodipodi.sourceforge.net/DTD/sodipodi-0.dtd"
   xmlns:inkscape="http://www.inkscape.org/namespaces/inkscape"
   width="80"
   height="80"
   viewBox="0 0 80 80"
   version="1.1"
   id="svg4530"
   sodipodi:docname="empresas-placeholder.svg"
   inkscape:version="0.92.3 (2405546, 2018-03-11)"
   style="fill:none"
   inkscape:export-filename="D:\_soaba\cmj\api\public\assets\placeholders\empresas-placeholder.png"
   inkscape:export-xdpi="96"
   inkscape:export-ydpi="96">
  <metadata
     id="metadata4536">
    <rdf:RDF>
      <cc:Work
         rdf:about="">
        <dc:format>image/svg+xml</dc:format>
        <dc:type
           rdf:resource="http://purl.org/dc/dcmitype/StillImage" />
        <dc:title></dc:title>
      </cc:Work>
    </rdf:RDF>
  </metadata>
  <defs
     id="defs4534" />
  <sodipodi:namedview
     pagecolor="#ffffff"
     bordercolor="#666666"
     borderopacity="1"
     objecttolerance="10"
     gridtolerance="10"
     guidetolerance="10"
     inkscape:pageopacity="0"
     inkscape:pageshadow="2"
     inkscape:window-width="1858"
     inkscape:window-height="1057"
     id="namedview4532"
     showgrid="false"
     inkscape:zoom="3.0833936"
     inkscape:cx="-61.957947"
     inkscape:cy="-22.114684"
     inkscape:window-x="54"
     inkscape:window-y="-8"
     inkscape:window-maximized="1"
     inkscape:current-layer="svg4530"
     scale-x="3.2" />
  <rect
     style="opacity:1;vector-effect:none;fill:#25216e;fill-opacity:0.44855969;stroke:none;stroke-width:7.92214632;stroke-linecap:butt;stroke-linejoin:miter;stroke-miterlimit:4;stroke-dasharray:none;stroke-dashoffset:0;stroke-opacity:1"
     id="rect4538"
     width="80.242561"
     height="80.242561"
     x="-0.12128067"
     y="-0.12128067" />
  <path
     d="M 66.387453,63.454388 V 37.066933 c 1.618432,0 2.931942,-1.310576 2.931942,-2.931939 0,-1.621428 -1.313509,-2.932007 -2.931942,-2.932007 H 13.612544 c -1.618431,0 -2.93194,1.310579 -2.93194,2.932007 0,1.621363 1.313509,2.931939 2.93194,2.931939 v 26.387455 c -1.618431,0 -2.93194,1.31058 -2.93194,2.93194 0,1.62136 1.313509,2.93194 2.93194,2.93194 h 52.774909 c 1.618433,0 2.931943,-1.31058 2.931943,-2.93194 0,-1.62136 -1.31351,-2.93194 -2.931943,-2.93194 z M 20.630885,25.101734 c -1.489425,0.647979 -3.213405,-0.04983 -3.849636,-1.539269 -0.639163,-1.486493 0.05277,-3.210475 1.539268,-3.849637 L 38.84414,10.91702 c 0.738849,-0.313716 1.571518,-0.313716 2.310368,0 l 20.523578,8.795808 c 1.486493,0.639162 2.178432,2.363144 1.539266,3.849637 -0.474974,1.111205 -1.556858,1.776754 -2.697385,1.776754 -0.384085,0 -0.776965,-0.07327 -1.152253,-0.237472 L 39.999324,16.801412 Z M 19.476062,63.454618 H 60.523126 V 37.06716 H 19.476062 Z M 40.000677,42.930589 c -1.618432,0 -2.931939,1.310575 -2.931939,2.931939 v 8.79582 c 0,1.62136 1.31351,2.93194 2.931939,2.93194 1.618432,0 2.931939,-1.31058 2.931939,-2.93194 v -8.79582 c 0,-1.621364 -1.313507,-2.931939 -2.931939,-2.931939 z m 11.72663,0 c -1.618433,0 -2.931942,1.310575 -2.931942,2.931939 v 8.79582 c 0,1.62136 1.313509,2.93194 2.931942,2.93194 1.618429,0 2.931938,-1.31058 2.931938,-2.93194 v -8.79582 c 0,-1.621364 -1.313509,-2.931939 -2.931938,-2.931939 z m -23.455065,0 c -1.618431,0 -2.93194,1.310575 -2.93194,2.931939 v 8.79582 c 0,1.62136 1.313509,2.93194 2.93194,2.93194 1.618431,0 2.931939,-1.31058 2.931939,-2.93194 v -8.79582 c 0,-1.621364 -1.313508,-2.931939 -2.931939,-2.931939 z"
     id="path4528"
     inkscape:connector-curvature="0"
     style="clip-rule:evenodd;fill:#ffffff;fill-rule:evenodd;stroke-width:2.25533795" />
</svg>
