<?xml version="1.0" encoding="UTF-8" standalone="no"?>
<svg
   xmlns:dc="http://purl.org/dc/elements/1.1/"
   xmlns:cc="http://creativecommons.org/ns#"
   xmlns:rdf="http://www.w3.org/1999/02/22-rdf-syntax-ns#"
   xmlns:svg="http://www.w3.org/2000/svg"
   xmlns="http://www.w3.org/2000/svg"
   xmlns:sodipodi="http://sodipodi.sourceforge.net/DTD/sodipodi-0.dtd"
   xmlns:inkscape="http://www.inkscape.org/namespaces/inkscape"
   width="80"
   height="80"
   viewBox="0 0 80 80"
   version="1.1"
   id="svg4552"
   sodipodi:docname="users-placeholder.svg"
   style="fill:none"
   inkscape:version="0.92.3 (2405546, 2018-03-11)">
  <metadata
     id="metadata4558">
    <rdf:RDF>
      <cc:Work
         rdf:about="">
        <dc:format>image/svg+xml</dc:format>
        <dc:type
           rdf:resource="http://purl.org/dc/dcmitype/StillImage" />
        <dc:title></dc:title>
      </cc:Work>
    </rdf:RDF>
  </metadata>
  <defs
     id="defs4556" />
  <sodipodi:namedview
     pagecolor="#ffffff"
     bordercolor="#666666"
     borderopacity="1"
     objecttolerance="10"
     gridtolerance="10"
     guidetolerance="10"
     inkscape:pageopacity="0"
     inkscape:pageshadow="2"
     inkscape:window-width="1858"
     inkscape:window-height="1057"
     id="namedview4554"
     showgrid="false"
     inkscape:zoom="7.1515152"
     inkscape:cx="22.788135"
     inkscape:cy="16.5"
     inkscape:window-x="54"
     inkscape:window-y="-8"
     inkscape:window-maximized="1"
     inkscape:current-layer="svg4552" />
  <rect
     style="opacity:1;vector-effect:none;fill:#25216e;fill-opacity:0.44855969;stroke:none;stroke-width:7.90417957;stroke-linecap:butt;stroke-linejoin:miter;stroke-miterlimit:4;stroke-dasharray:none;stroke-dashoffset:0;stroke-opacity:1"
     id="rect4538"
     width="80.060577"
     height="80.060577"
     x="0.057331864"
     y="-0.0032433553" />
  <path
     d="m 59.36501,53.433125 c 0.681018,0.681018 0.917459,1.687297 0.612525,2.599596 l -2.541112,7.623335 c -0.34559,1.039278 -1.316374,1.738121 -2.408974,1.738121 H 24.533995 c -1.095211,0 -2.065932,-0.698843 -2.411523,-1.738121 l -2.54111,-7.623335 c -0.304933,-0.912299 -0.06607,-1.918578 0.61495,-2.599596 0.340511,-0.342932 8.492409,-8.367844 19.584308,-8.367844 11.089568,0 19.241458,8.024912 19.58439,8.367844 z m -6.169821,6.878829 1.428185,-4.286896 c -2.33798,-1.910915 -8.017248,-5.877554 -14.842754,-5.877554 -6.868619,0 -12.520067,3.959132 -14.847725,5.87005 l 1.430654,4.2944 z M 39.77968,19.654162 c -4.202919,0 -7.623334,3.420339 -7.623334,7.623353 0,4.203061 3.420415,7.62332 7.623334,7.62332 4.20308,0 7.623338,-3.420259 7.623338,-7.62332 0,-4.203014 -3.420258,-7.623353 -7.623338,-7.623353 z m 0,20.328896 c -7.005837,0 -12.705558,-5.699754 -12.705558,-12.705543 0,-7.005856 5.699721,-12.705576 12.705558,-12.705576 7.005807,0 12.705561,5.69972 12.705561,12.705576 0,7.005789 -5.699754,12.705543 -12.705561,12.705543 z"
     id="path4550"
     inkscape:connector-curvature="0"
     style="clip-rule:evenodd;fill:#ffffff;fill-rule:evenodd;stroke-width:1.56376123" />
</svg>
